<?xml version="1.0" encoding="utf-8"?>
<!-- Generator: Adobe Illustrator 24.3.0, SVG Export Plug-In . SVG Version: 6.00 Build 0)  -->
<svg version="1.1" id="Layer_1" xmlns="http://www.w3.org/2000/svg" xmlns:xlink="http://www.w3.org/1999/xlink" x="0px" y="0px"
	 viewBox="0 0 362 60" style="enable-background:new 0 0 362 60;" xml:space="preserve">
<style type="text/css">
	.st0{fill:none;stroke:#000000;}
	.st1{font-family:'Georgia';}
	.st2{font-size:12px;}
	.st3{font-family:'Helvetica-Bold';}
	.st4{font-size:10px;}
</style>
<image style="overflow:visible;enable-background:new    ;" width="256" height="1" xlink:href="9D9E999165E06CF4.png"  transform="matrix(1.25 0 0 10 15 24)">
</image>
<line class="st0" x1="15.5" y1="24" x2="15.5" y2="40"/>
<g>
	<text transform="matrix(1 0 0 1 12.7192 50.1)" class="st1 st2">1</text>
</g>
<line class="st0" x1="79.5" y1="24" x2="79.5" y2="40"/>
<g>
	<text transform="matrix(1 0 0 1 73.9385 50.1)" class="st1 st2">10</text>
</g>
<line class="st0" x1="143.5" y1="24" x2="143.5" y2="40"/>
<g>
	<text transform="matrix(1 0 0 1 135.1577 50.1)" class="st1 st2">100</text>
</g>
<line class="st0" x1="207.5" y1="24" x2="207.5" y2="40"/>
<g>
	<text transform="matrix(1 0 0 1 202.2192 50.1)" class="st1 st2">1k</text>
</g>
<line class="st0" x1="271.5" y1="24" x2="271.5" y2="40"/>
<text transform="matrix(1 0 0 1 263.4385 50.1)" class="st1 st2">10k</text>
<line class="st0" x1="335.5" y1="24" x2="335.5" y2="40"/>
<text transform="matrix(1 0 0 1 324.6577 50.1)" class="st1 st2">100k</text>
<text transform="matrix(1 0 0 1 15 18)" class="st3 st4">Cases</text>
</svg>
